<svg t="1703661574262" class="icon" viewBox="0 0 1024 1024" version="1.1" xmlns="http://www.w3.org/2000/svg" p-id="12760" width="32" height="32"><path d="M160 640a32 32 0 0 1 32 32V896a32 32 0 0 1-64 0v-224a32 32 0 0 1 32-32zM403.2 480a32 32 0 0 1 32 32v384a32 32 0 0 1-64 0V512a32 32 0 0 1 32-32zM646.4 576a32 32 0 0 1 32 32V896a32 32 0 0 1-64 0V608a32 32 0 0 1 32-32zM889.6 384a32 32 0 0 1 32 32V896a32 32 0 1 1-64 0V416a32 32 0 0 1 32-32zM685.312 128c0-17.664 15.552-32 34.688-32h173.312c19.2 0 34.688 14.336 34.688 32v160c0 17.664-15.488 32-34.688 32-19.136 0-34.624-14.336-34.624-32V213.12l-181.952 192a36.736 36.736 0 0 1-46.208 4.928l-220.352-145.28-256.64 207.36a36.736 36.736 0 0 1-48.96-3.072 30.336 30.336 0 0 1 3.264-45.12l277.312-224a36.928 36.928 0 0 1 43.008-1.92l217.088 143.104 171.712-181.12H720c-19.2 0-34.688-14.336-34.688-32z" p-id="12761" stroke="black" stroke-width="15"></path></svg>